<?xml version="1.0" encoding="utf-8"?>
<svg viewBox="0 0 600 300" xmlns="http://www.w3.org/2000/svg">
  <g transform="matrix(0.10000000149011612, 0, 0, -0.10000000149011612, 0, 300.00000000000006)" fill="#000000" stroke="none">
    <path d="M4275 2874 c-223 -37 -451 -138 -637 -281 -12 -10 -68 -63 -123 -118 -199 -198 -325 -439 -381 -725 -26 -138 -25 -380 4 -516 61 -288 183 -516 382 -714 200 -201 433 -326 715 -385 191 -40 455 -28 661 31 117 33 307 126 416 204 110 79 268 240 341 351 170 257 245 521 234 829 -10 283 -80 499 -238 735 -206 308 -548 527 -918 589 -115 19 -343 20 -456 0z m-327 -832 c19 -12 61 -128 196 -532 67 -201 125 -372 129 -380 6 -13 -18 -24 -123 -58 -71 -24 -134 -41 -139 -37 -6 3 -22 44 -38 91 -21 64 -32 86 -48 90 -11 3 -74 3 -139 2 l-120 -3 -34 -85 c-18 -47 -37 -89 -42 -93 -9 -10 -143 44 -177 71 l-23 17 26 63 25 63 -24 42 c-34 58 -50 119 -34 129 6 4 39 8 72 8 l60 0 29 73 c15 39 48 126 72 192 25 66 61 160 81 208 40 98 51 107 150 131 70 17 84 18 101 8z m738 -119 c-4 -65 -9 -140 -11 -168 -3 -27 -16 -185 -30 -349 -13 -165 -29 -304 -33 -308 -12 -12 -206 -68 -236 -68 -13 0 -26 6 -28 13 -8 20 62 921 72 931 9 9 220 64 253 65 18 1 19 -6 13 -116z m725 103 c77 -18 144 -59 176 -108 32 -47 43 -143 24 -201 -17 -50 -85 -123 -148 -159 -29 -16 -53 -31 -53 -33 0 -6 159 -276 179 -304 13 -18 33 -31 56 -35 19 -4 35 -11 35 -16 0 -5 -62 -39 -137 -75 -108 -52 -142 -64 -158 -57 -14 6 -54 81 -120 220 -54 116 -102 209 -105 207 -4 -2 -13 -78 -20 -168 -7 -91 -15 -170 -19 -176 -4 -6 -60 -30 -125 -53 -85 -30 -120 -38 -128 -30 -8 8 -7 54 2 169 6 87 20 261 29 386 l16 228 -20 -5 c-45 -13 -128 -19 -124 -10 22 56 108 188 126 195 90 34 411 50 514 25z" style="fill: rgb(78, 70, 180);"/>
    <path d="M3824 1660 c-4 -14 -24 -73 -45 -132 l-37 -108 75 0 c73 0 74 1 67 23 -4 12 -17 72 -30 132 -18 85 -25 104 -30 85z" style="fill: rgb(78, 70, 180);"/>
    <path d="M5209 1854 c-17 -5 -21 -25 -35 -196 -6 -69 -5 -78 10 -78 20 0 71 25 106 52 67 52 92 154 47 196 -23 22 -94 36 -128 26z" style="fill: rgb(78, 70, 180);"/>
    <path d="M1445 2034 c-111 -17 -135 -27 -135 -56 0 -33 227 -919 238 -930 10 -10 207 43 222 59 12 12 370 903 370 920 0 33 -230 0 -250 -36 -5 -10 -45 -121 -90 -247 -44 -126 -83 -236 -86 -244 -10 -25 -19 7 -80 275 -52 227 -69 278 -93 274 -3 -1 -46 -7 -96 -15z" style="fill: rgb(78, 70, 180);"/>
    <path d="M402 2010 c-62 -15 -117 -31 -122 -36 -4 -5 -15 -119 -24 -254 -33 -480 -41 -551 -64 -597 -23 -44 -27 -69 -15 -76 5 -2 125 -1 267 4 253 7 260 8 281 31 26 27 80 177 68 189 -4 4 -75 1 -156 -7 -82 -9 -151 -13 -154 -10 -6 5 26 403 48 596 13 121 12 190 -3 189 -7 -1 -64 -14 -126 -29z" style="fill: rgb(78, 70, 180);"/>
    <path d="M1070 2007 c-69 -16 -126 -31 -128 -32 -10 -9 -71 -930 -63 -938 9 -9 237 47 253 62 3 3 20 175 36 381 42 512 44 548 35 552 -4 3 -64 -9 -133 -25z" style="fill: rgb(78, 70, 180);"/>
    <path d="M2695 2025 c-82 -7 -210 -14 -282 -14 -126 -1 -133 -2 -146 -23 -8 -13 -32 -53 -55 -89 -23 -36 -42 -71 -42 -77 0 -8 18 -12 48 -12 27 0 51 -2 53 -4 3 -3 1 -55 -4 -116 -8 -111 -8 -111 -52 -172 -25 -33 -45 -64 -45 -69 0 -5 15 -9 34 -9 19 0 37 -3 40 -8 2 -4 0 -56 -4 -115 -8 -99 -12 -112 -46 -168 -20 -34 -33 -64 -28 -69 12 -11 284 -30 427 -30 76 0 118 4 129 13 23 18 98 141 98 161 0 14 -19 16 -165 16 l-165 0 1 38 c1 20 4 64 8 97 l6 60 80 5 79 5 37 85 c21 47 38 91 38 98 1 9 -27 12 -105 12 l-107 0 6 68 c4 37 7 77 7 89 0 22 3 23 141 25 l142 3 33 85 c41 104 43 131 12 129 -13 -1 -90 -7 -173 -14z" style="fill: rgb(78, 70, 180);"/>
  </g>
</svg>